# ProBuilder 5.0.3
# https://unity3d.com/unity/features/worldbuilding/probuilder
# 22/01/2022 15:48:21

mtllib ./StopperBase.mtl
o StopperBase

g StopperBase
v 2.384186E-07 -0.1464449 -0.4888601
v 2.384186E-07 0.9777207 -0.4888601
v 0.02392673 -0.1464449 -0.3377943
v 0.02392673 0.9777207 -0.337794
v 0.09336424 -0.1464449 -0.2015152
v 0.09336421 0.9777207 -0.2015153
v 0.2015154 -0.1464449 -0.09336376
v 0.2015156 0.9777207 -0.09336397
v 0.3377943 -0.1464449 -0.02392673
v 0.3377943 0.9777207 -0.0239265
v 0.4888604 -0.1464449 0
v 0.4888604 0.9777207 0
v 0.6399264 -0.1464449 -0.02392673
v 0.6399264 0.9777207 -0.0239265
v 0.7762051 -0.1464449 -0.09336376
v 0.7762051 0.9777207 -0.09336397
v 0.8843565 -0.1464449 -0.2015152
v 0.8843566 0.9777207 -0.2015154
v 0.953794 -0.1464449 -0.3377943
v 0.953794 0.9777207 -0.337794
v 0.9777205 -0.1464449 -0.4888601
v 0.9777205 0.9777207 -0.4888602
v 0.953794 -0.1464449 -0.639926
v 0.953794 0.9777207 -0.6399262
v 0.8843565 -0.1464449 -0.7762051
v 0.8843566 0.9777207 -0.7762048
v 0.7762053 -0.1464449 -0.8843565
v 0.7762052 0.9777207 -0.8843562
v 0.6399264 -0.1464449 -0.9537935
v 0.6399265 0.9777207 -0.9537938
v 0.4888604 -0.1464449 -0.9777203
v 0.4888604 0.9777207 -0.9777203
v 0.3377943 -0.1464449 -0.9537935
v 0.3377942 0.9777207 -0.9537938
v 0.2015157 -0.1464449 -0.8843565
v 0.2015157 0.9777207 -0.8843564
v 0.09336424 -0.1464449 -0.7762051
v 0.09336424 0.9777207 -0.7762049
v 0.02392673 -0.1464449 -0.639926
v 0.02392673 0.9777207 -0.6399262
v 0.4888604 -0.1464449 -0.4888601
v 0.4888604 0.9777207 -0.4888601

vt -0.4828414 -0.1464449
vt -0.4828414 0.9777207
vt -0.3298925 -0.1464449
vt -0.3298922 0.9777207
vt -0.2901146 -0.1464449
vt -0.2901144 0.9777207
vt -0.1371651 -0.1464449
vt -0.1371652 0.9777207
vt -0.0764745 -0.1464449
vt -0.07647463 0.9777207
vt 0.07647455 -0.1464449
vt 0.07647449 0.9777207
vt 0.1371658 -0.1464449
vt 0.1371658 0.9777208
vt 0.2901149 -0.1464449
vt 0.2901151 0.9777208
vt 0.3298924 -0.1464449
vt 0.3298925 0.9777207
vt 0.4828416 -0.1464449
vt 0.4828416 0.9777207
vt 0.6357908 -0.1464449
vt 0.6357907 0.9777207
vt 0.5810418 -0.1464449
vt 0.5810417 0.9777208
vt 0.7339907 -0.1464449
vt 0.7339908 0.9777208
vt 0.614878 -0.146445
vt 0.6148782 0.9777207
vt 0.7678272 -0.146445
vt 0.7678274 0.9777207
vt -0.6357921 -0.1464449
vt -0.6357921 0.9777207
vt -0.7339885 -0.1464448
vt -0.7339885 0.9777209
vt -0.5810396 -0.1464448
vt -0.5810395 0.9777209
vt -0.7678276 -0.1464449
vt -0.7678275 0.9777207
vt -0.6148784 -0.1464449
vt -0.6148782 0.9777207
vt 2.384186E-07 -0.4888601
vt 0.4888604 -0.4888601
vt 0.02392673 -0.3377943
vt -0.4888604 -0.4888601
vt -0.02392673 -0.337794
vt 0.09336424 -0.2015152
vt -0.09336421 -0.2015153
vt 0.2015154 -0.09336376
vt -0.2015156 -0.09336397
vt 0.3377943 -0.02392673
vt -0.3377943 -0.0239265
vt 0.4888604 0
vt -0.4888604 0
vt 0.6399264 -0.02392673
vt -0.6399264 -0.0239265
vt 0.7762051 -0.09336376
vt -0.7762051 -0.09336397
vt 0.8843565 -0.2015152
vt -0.8843566 -0.2015154
vt 0.953794 -0.3377943
vt -0.953794 -0.337794
vt 0.9777205 -0.4888601
vt -0.9777205 -0.4888602
vt 0.953794 -0.639926
vt -0.953794 -0.6399262
vt 0.8843565 -0.7762051
vt -0.8843566 -0.7762048
vt 0.7762053 -0.8843565
vt -0.7762052 -0.8843562
vt 0.6399264 -0.9537935
vt -0.6399265 -0.9537938
vt 0.4888604 -0.9777203
vt -0.4888604 -0.9777203
vt 0.3377943 -0.9537935
vt -0.3377942 -0.9537938
vt 0.2015157 -0.8843565
vt -0.2015157 -0.8843564
vt 0.09336424 -0.7762051
vt -0.09336424 -0.7762049
vt 0.02392673 -0.639926
vt -0.02392673 -0.6399262

vn -1 -8.397744E-09 6.789108E-08
vn -0.9510567 -6.42825E-08 0.3090165
vn -0.8090175 1.979451E-08 0.5877846
vn -0.5877842 1.792488E-07 0.8090178
vn -0.3090169 -9.983572E-08 0.9510565
vn 3.922596E-07 -5.407096E-08 1
vn 0.3090162 -1.497333E-07 0.9510568
vn 0.5877848 3.537701E-08 0.8090173
vn 0.8090172 5.534502E-08 0.5877848
vn 0.9510565 -4.513778E-08 0.3090169
vn 1 -1.15469E-08 -8.297798E-08
vn 0.9510567 -5.818972E-08 -0.3090166
vn 0.8090175 4.498067E-08 -0.5877846
vn 0.5877843 2.171713E-07 -0.8090177
vn 0.309017 -9.828348E-08 -0.9510565
vn -3.998031E-07 -5.512068E-08 -1
vn -0.3090162 -1.70111E-07 -0.9510568
vn -0.5877848 4.904224E-09 -0.8090173
vn -0.8090172 6.233015E-08 -0.5877848
vn -0.9510565 -2.898111E-08 -0.3090169
vn 0 -1 0
vn 0 1 0

usemtl Lit
f 1/41/21 41/42/21 3/43/21
f 3/43/21 41/42/21 5/46/21
f 5/46/21 41/42/21 7/48/21
f 7/48/21 41/42/21 9/50/21
f 9/50/21 41/42/21 11/52/21
f 11/52/21 41/42/21 13/54/21
f 13/54/21 41/42/21 15/56/21
f 15/56/21 41/42/21 17/58/21
f 17/58/21 41/42/21 19/60/21
f 19/60/21 41/42/21 21/62/21
f 21/62/21 41/42/21 23/64/21
f 23/64/21 41/42/21 25/66/21
f 25/66/21 41/42/21 27/68/21
f 27/68/21 41/42/21 29/70/21
f 29/70/21 41/42/21 31/72/21
f 31/72/21 41/42/21 33/74/21
f 33/74/21 41/42/21 35/76/21
f 35/76/21 41/42/21 37/78/21
f 37/78/21 41/42/21 39/80/21
f 39/80/21 41/42/21 1/41/21
f 4/45/22 42/44/22 2/41/22
f 6/47/22 42/44/22 4/45/22
f 8/49/22 42/44/22 6/47/22
f 10/51/22 42/44/22 8/49/22
f 12/53/22 42/44/22 10/51/22
f 14/55/22 42/44/22 12/53/22
f 16/57/22 42/44/22 14/55/22
f 18/59/22 42/44/22 16/57/22
f 20/61/22 42/44/22 18/59/22
f 22/63/22 42/44/22 20/61/22
f 24/65/22 42/44/22 22/63/22
f 26/67/22 42/44/22 24/65/22
f 28/69/22 42/44/22 26/67/22
f 30/71/22 42/44/22 28/69/22
f 32/73/22 42/44/22 30/71/22
f 34/75/22 42/44/22 32/73/22
f 36/77/22 42/44/22 34/75/22
f 38/79/22 42/44/22 36/77/22
f 40/81/22 42/44/22 38/79/22
f 2/41/22 42/44/22 40/81/22
f 4/4/2 2/2/1 1/1/1
f 1/1/1 3/3/2 4/4/2
f 6/8/3 4/6/2 3/5/2
f 3/5/2 5/7/3 6/8/3
f 8/12/4 6/10/3 5/9/3
f 5/9/3 7/11/4 8/12/4
f 10/16/5 8/14/4 7/13/4
f 7/13/4 9/15/5 10/16/5
f 12/20/6 10/18/5 9/17/5
f 9/17/5 11/19/6 12/20/6
f 14/22/7 12/20/6 11/19/6
f 11/19/6 13/21/7 14/22/7
f 16/26/8 14/24/7 13/23/7
f 13/23/7 15/25/8 16/26/8
f 18/30/9 16/28/8 15/27/8
f 15/27/8 17/29/9 18/30/9
f 20/26/10 18/24/9 17/23/9
f 17/23/9 19/25/10 20/26/10
f 22/22/11 20/20/10 19/19/10
f 19/19/10 21/21/11 22/22/11
f 24/20/12 22/18/11 21/17/11
f 21/17/11 23/19/12 24/20/12
f 26/16/13 24/14/12 23/13/12
f 23/13/12 25/15/13 26/16/13
f 28/12/14 26/10/13 25/9/13
f 25/9/13 27/11/14 28/12/14
f 30/8/15 28/6/14 27/5/14
f 27/5/14 29/7/15 30/8/15
f 32/4/16 30/2/15 29/1/15
f 29/1/15 31/3/16 32/4/16
f 34/2/17 32/32/16 31/31/16
f 31/31/16 33/1/17 34/2/17
f 36/36/18 34/34/17 33/33/17
f 33/33/17 35/35/18 36/36/18
f 38/40/19 36/38/18 35/37/18
f 35/37/18 37/39/19 38/40/19
f 40/36/20 38/34/19 37/33/19
f 37/33/19 39/35/20 40/36/20
f 2/2/1 40/32/20 39/31/20
f 39/31/20 1/1/1 2/2/1

