# ProBuilder 5.0.3
# https://unity3d.com/unity/features/worldbuilding/probuilder
# 08/01/2022 12:52:10

mtllib ./TopCylinder.mtl
o TopCylinder

g TopCylinder (2)
v 0 0 -0.5
v 0 1 -0.5
v 0.006155819 0 -0.4217827
v 0.006155819 1 -0.4217827
v 0.02447173 0 -0.3454915
v 0.02447173 1 -0.3454915
v 0.05449674 0 -0.2730047
v 0.05449674 1 -0.2730047
v 0.0954915 0 -0.2061073
v 0.0954915 1 -0.2061073
v 0.1464466 0 -0.1464466
v 0.1464466 1 -0.1464466
v 0.2061073 0 -0.09549147
v 0.2061073 1 -0.09549147
v 0.2730047 0 -0.05449671
v 0.2730047 1 -0.05449671
v 0.3454915 0 -0.0244717
v 0.3454915 1 -0.0244717
v 0.4217828 0 -0.006155789
v 0.4217828 1 -0.006155789
v 0.5 0 2.980232E-08
v 0.5 1 2.980232E-08
v 0.5782172 0 -0.006155789
v 0.5782172 1 -0.006155789
v 0.6545085 0 -0.0244717
v 0.6545085 1 -0.0244717
v 0.7269952 0 -0.05449668
v 0.7269952 1 -0.05449668
v 0.7938926 0 -0.09549147
v 0.7938926 1 -0.09549147
v 0.8535534 0 -0.1464466
v 0.8535534 1 -0.1464466
v 0.9045085 0 -0.2061074
v 0.9045085 1 -0.2061074
v 0.9455032 0 -0.2730047
v 0.9455032 1 -0.2730047
v 0.9755282 0 -0.3454915
v 0.9755282 1 -0.3454915
v 0.9938442 0 -0.4217827
v 0.9938442 1 -0.4217827
v 1 0 -0.5
v 1 1 -0.5
v 0.9938442 0 -0.5782171
v 0.9938442 1 -0.5782171
v 0.9755282 0 -0.6545085
v 0.9755282 1 -0.6545085
v 0.9455032 0 -0.7269952
v 0.9455032 1 -0.7269952
v 0.9045085 0 -0.7938925
v 0.9045085 1 -0.7938925
v 0.8535534 0 -0.8535533
v 0.8535534 1 -0.8535533
v 0.7938927 0 -0.9045084
v 0.7938927 1 -0.9045084
v 0.7269953 0 -0.9455032
v 0.7269953 1 -0.9455032
v 0.6545085 0 -0.9755282
v 0.6545085 1 -0.9755282
v 0.5782173 0 -0.9938442
v 0.5782173 1 -0.9938442
v 0.5 0 -1
v 0.5 1 -1
v 0.4217827 0 -0.9938442
v 0.4217827 1 -0.9938442
v 0.3454914 0 -0.9755282
v 0.3454914 1 -0.9755282
v 0.2730049 0 -0.9455033
v 0.2730049 1 -0.9455033
v 0.2061075 0 -0.9045085
v 0.2061075 1 -0.9045085
v 0.1464467 0 -0.8535534
v 0.1464467 1 -0.8535534
v 0.09549153 0 -0.7938926
v 0.09549153 1 -0.7938926
v 0.05449674 0 -0.7269952
v 0.05449674 1 -0.7269952
v 0.02447173 0 -0.6545085
v 0.02447173 1 -0.6545085
v 0.006155819 0 -0.5782171
v 0.006155819 1 -0.5782171
v 1.000632 -0.2319248 -0.7550845
v 0.9545641 -0.2319248 -0.8302598
v 1.034372 -0.2319248 -0.6736279
v 0.8973033 -0.2319248 -0.8973033
v 0.8302603 -0.2319248 -0.9545637
v 0.7550848 -0.2319248 -1.000632
v 0.6736281 -0.2319248 -1.034372
v 0.5878961 -0.2319248 -1.054954
v 0.5 -0.2319248 -1.061872
v 0.4121039 -0.2319248 -1.054954
v 0.3263719 -0.2319248 -1.034372
v 0.2449157 -0.2319248 -1.000632
v 0.16974 -0.2319248 -0.954564
v 0.1026967 -0.2319248 -0.8973035
v 0.04543591 -0.2319248 -0.83026
v -0.0006315708 -0.2319248 -0.7550845
v -0.03437185 -0.2319248 -0.6736279
v -0.05495441 -0.2319248 -0.587896
v -0.06187189 -0.2319248 -0.5
v -0.05495441 -0.2319248 -0.4121038
v -0.03437185 -0.2319248 -0.3263721
v -0.0006315708 -0.2319248 -0.2449155
v 0.04543591 -0.2319248 -0.16974
v 0.1026967 -0.2319248 -0.1026966
v 0.16974 -0.2319248 -0.04543605
v 0.2449155 -0.2319248 0.000631541
v 0.3263719 -0.2319248 0.03437194
v 0.4121039 -0.2319248 0.05495438
v 0.5 -0.2319248 0.06187192
v 0.5878961 -0.2319248 0.05495438
v 0.6736281 -0.2319248 0.03437194
v 0.7550845 -0.2319248 0.0006316006
v 0.83026 -0.2319248 -0.04543605
v 0.8973033 -0.2319248 -0.1026966
v 0.9545641 -0.2319248 -0.16974
v 1.000632 -0.2319248 -0.2449155
v 1.034372 -0.2319248 -0.3263721
v 1.054954 -0.2319248 -0.4121038
v 1.061872 -0.2319248 -0.5
v 1.054954 -0.2319248 -0.587896

vt -0.4984587 0
vt -0.4984587 1
vt -0.4199995 0
vt -0.4199995 1
vt -0.4086918 0
vt -0.4086918 1
vt -0.3302327 0
vt -0.3302327 1
vt -0.3098276 0
vt -0.3098276 1
vt -0.2313685 0
vt -0.2313685 1
vt -0.2043003 0
vt -0.2043003 1
vt -0.1258412 0
vt -0.1258412 1
vt -0.09470847 0
vt -0.09470847 1
vt -0.01624936 0
vt -0.01624936 1
vt 0.01624935 0
vt 0.01624935 1
vt 0.09470843 0
vt 0.09470843 1
vt 0.1258413 0
vt 0.1258413 1
vt 0.2043004 0
vt 0.2043004 1
vt 0.2313685 0
vt 0.2313685 1
vt 0.3098276 0
vt 0.3098276 1
vt 0.3302327 0
vt 0.3302327 1
vt 0.4086918 0
vt 0.4086918 1
vt 0.4199996 0
vt 0.4199996 1
vt 0.4984587 0
vt 0.4984587 1
vt 0.5769178 0
vt 0.5769178 1
vt 0.5636781 0
vt 0.5636781 1
vt 0.6421372 0
vt 0.6421372 1
vt 0.6140519 0
vt 0.6140519 1
vt 0.692511 0
vt 0.692511 1
vt 0.6483397 0
vt 0.6483397 1
vt 0.7267988 0
vt 0.7267988 1
vt 0.6656975 0
vt 0.6656975 1
vt 0.7441567 0
vt 0.7441567 1
vt -0.5769179 0
vt -0.5769179 1
vt -0.6421371 0
vt -0.6421371 1
vt -0.563678 0
vt -0.563678 1
vt -0.6925113 0
vt -0.6925113 1
vt -0.6140524 0
vt -0.6140524 1
vt -0.7267988 0
vt -0.7267988 1
vt -0.6483397 0
vt -0.6483397 1
vt -0.7441566 0
vt -0.7441566 1
vt -0.6656975 0
vt -0.6656975 1
vt 0.1258412 -0.3048321
vt 0.2043002 -0.3048321
vt 0.1209868 -0.5448189
vt 0.2091544 -0.5448189
vt 0.2313684 -0.2960187
vt 0.3098275 -0.2960187
vt 0.2265139 -0.5360055
vt 0.3146819 -0.5360055
vt 0.01624945 -0.3092932
vt 0.09470858 -0.3092932
vt 0.01139488 -0.54928
vt 0.09956308 -0.54928
vt -0.09470823 -0.3092927
vt -0.01624924 -0.3092927
vt -0.09956254 -0.5492795
vt -0.01139494 -0.5492795
vt -0.2042991 -0.304832
vt -0.1258399 -0.304832
vt -0.2091536 -0.5448189
vt -0.1209855 -0.5448189
vt -0.309828 -0.2960196
vt -0.2313688 -0.2960196
vt -0.3146825 -0.5360065
vt -0.2265145 -0.5360065
vt -0.4086919 -0.2830719
vt -0.3302328 -0.2830719
vt -0.4135464 -0.5230587
vt -0.3253783 -0.5230587
vt -0.4984585 -0.2663094
vt -0.4199994 -0.2663094
vt -0.5033129 -0.5062962
vt -0.415145 -0.5062962
vt -0.576918 -0.2461439
vt -0.4984588 -0.2461439
vt -0.5817724 -0.4861307
vt -0.4936045 -0.4861307
vt -0.6421371 -0.2230721
vt -0.563678 -0.2230721
vt -0.6469916 -0.4630589
vt -0.5588235 -0.4630589
vt -0.6925113 -0.197662
vt -0.6140524 -0.197662
vt -0.6973656 -0.4376488
vt -0.6091981 -0.4376488
vt -0.7267988 -0.1705396
vt -0.6483397 -0.1705396
vt -0.7316533 -0.4105264
vt -0.6434852 -0.4105265
vt -0.7441565 -0.1423727
vt -0.6656974 -0.1423727
vt -0.7490109 -0.3823595
vt -0.660843 -0.3823595
vt -0.7441566 -0.1138542
vt -0.6656975 -0.1138542
vt -0.749011 -0.353841
vt -0.6608429 -0.353841
vt -0.7267988 -0.0856873
vt -0.6483397 -0.0856873
vt -0.7316532 -0.3256741
vt -0.6434853 -0.3256741
vt -0.692511 -0.05856457
vt -0.6140519 -0.05856457
vt -0.6973654 -0.2985514
vt -0.6091974 -0.2985514
vt -0.6421372 -0.03315444
vt -0.563678 -0.03315444
vt -0.6469916 -0.2731412
vt -0.5588236 -0.2731413
vt -0.5769177 -0.01008274
vt -0.4984587 -0.01008274
vt -0.581772 -0.2500696
vt -0.4936042 -0.2500695
vt -0.4984587 0.01008272
vt -0.4199995 0.01008272
vt -0.5033131 -0.2299041
vt -0.4151451 -0.2299041
vt -0.4086918 0.0268454
vt -0.3302327 0.0268454
vt -0.4135462 -0.2131414
vt -0.3253783 -0.2131414
vt -0.3098276 0.03979234
vt -0.2313685 0.03979234
vt -0.314682 -0.2001944
vt -0.2265141 -0.2001945
vt -0.2043003 0.04860506
vt -0.1258412 0.04860506
vt -0.2091547 -0.1913817
vt -0.1209869 -0.1913818
vt -0.09470847 0.05306639
vt -0.01624936 0.05306639
vt -0.099563 -0.1869204
vt -0.01139492 -0.1869204
vt 0.01624935 0.05306623
vt 0.09470843 0.05306623
vt 0.01139501 -0.1869206
vt 0.09956287 -0.1869206
vt 0.1258413 0.04860502
vt 0.2043004 0.04860502
vt 0.1209869 -0.1913818
vt 0.2091548 -0.1913818
vt 0.2313685 0.03979238
vt 0.3098277 0.03979238
vt 0.2265141 -0.2001944
vt 0.3146819 -0.2001944
vt 0.3302327 0.02684537
vt 0.4086918 0.02684537
vt 0.3253782 -0.2131414
vt 0.4135462 -0.2131414
vt 0.4199996 0.01008272
vt 0.4984587 0.01008272
vt 0.4151452 -0.2299041
vt 0.5033131 -0.2299041
vt 0.4984587 -0.01008273
vt 0.5769178 -0.01008273
vt 0.4936043 -0.2500695
vt 0.5817721 -0.2500695
vt 0.563678 -0.03315454
vt 0.6421372 -0.03315454
vt 0.5588236 -0.2731414
vt 0.6469917 -0.2731414
vt 0.6140519 -0.0585645
vt 0.692511 -0.0585645
vt 0.6091977 -0.2985513
vt 0.6973655 -0.2985513
vt 0.6483397 -0.08568709
vt 0.7267988 -0.08568709
vt 0.6434853 -0.3256739
vt 0.7316533 -0.3256739
vt 0.6656975 -0.1138542
vt 0.7441567 -0.1138542
vt 0.6608431 -0.353841
vt 0.749011 -0.353841
vt 0.6656973 -0.1423723
vt 0.7441565 -0.1423723
vt 0.6608429 -0.3823591
vt 0.749011 -0.3823591
vt 0.6483397 -0.17054
vt 0.7267987 -0.17054
vt 0.6434854 -0.4105269
vt 0.7316532 -0.4105268
vt 0.6140518 -0.1976624
vt 0.692511 -0.1976624
vt 0.6091974 -0.4376492
vt 0.6973654 -0.4376492
vt 0.5636781 -0.2230719
vt 0.6421372 -0.2230719
vt 0.5588237 -0.4630587
vt 0.6469915 -0.4630587
vt 0.4984588 -0.246143
vt 0.576918 -0.246143
vt 0.4936044 -0.4861298
vt 0.5817724 -0.4861299
vt 0.4199992 -0.2663099
vt 0.4984583 -0.2663099
vt 0.4151448 -0.5062967
vt 0.5033126 -0.5062966
vt 0.3302329 -0.283071
vt 0.408692 -0.283071
vt 0.3253784 -0.5230577
vt 0.4135464 -0.5230578

vn -1 0 -2.989448E-08
vn -0.9876884 0 0.1564344
vn -0.9510565 0 0.309017
vn -0.8910065 0 0.4539905
vn -0.8090169 0 0.5877853
vn -0.7071068 0 0.7071067
vn -0.5877854 0 0.8090169
vn -0.4539904 0 0.8910066
vn -0.309017 0 0.9510565
vn -0.1564344 0 0.9876883
vn 1.494724E-08 0 1
vn 0.1564344 0 0.9876884
vn 0.3090169 0 0.9510566
vn 0.4539904 0 0.8910065
vn 0.5877853 0 0.809017
vn 0.7071068 0 0.7071068
vn 0.8090171 0 0.5877851
vn 0.8910066 0 0.4539904
vn 0.9510565 0 0.3090169
vn 0.9876883 0 0.1564346
vn 1 0 -5.978895E-08
vn 0.9876883 0 -0.1564345
vn 0.9510565 0 -0.3090169
vn 0.8910065 0 -0.4539905
vn 0.8090171 0 -0.5877852
vn 0.7071069 0 -0.7071066
vn 0.5877859 0 -0.8090165
vn 0.4539909 0 -0.8910063
vn 0.3090169 0 -0.9510565
vn 0.1564346 0 -0.9876883
vn 0 0 -1
vn -0.1564345 0 -0.9876883
vn -0.3090171 0 -0.9510565
vn -0.4539905 0 -0.8910065
vn -0.5877851 0 -0.8090171
vn -0.7071067 0 -0.7071069
vn -0.8090169 0 -0.5877854
vn -0.8910065 0 -0.4539906
vn -0.9510565 0 -0.3090169
vn -0.9876884 0 -0.1564343
vn 0.8239968 0.2570193 -0.5049459
vn 0.8928431 0.2570187 -0.3698278
vn 0.7348612 0.2570192 -0.6276306
vn 0.6276309 0.2570187 -0.734861
vn 0.5049469 0.2570192 -0.8239962
vn 0.3698275 0.2570195 -0.892843
vn 0.2256031 0.2570189 -0.9397045
vn 0.07582357 0.257019 -0.9634272
vn -0.07582357 0.257019 -0.9634272
vn -0.225603 0.2570189 -0.9397045
vn -0.3698281 0.2570189 -0.8928429
vn -0.5049457 0.2570189 -0.8239971
vn -0.6276306 0.2570194 -0.7348612
vn -0.7348611 0.257019 -0.6276308
vn -0.8239966 0.2570198 -0.5049461
vn -0.892843 0.2570192 -0.3698278
vn -0.9397046 0.2570186 -0.2256029
vn -0.9634272 0.2570193 -0.07582328
vn -0.9634273 0.257019 0.07582323
vn -0.9397044 0.2570193 0.2256031
vn -0.8928431 0.2570186 0.3698278
vn -0.8239968 0.2570191 0.504946
vn -0.734861 0.2570195 0.6276307
vn -0.6276311 0.2570187 0.734861
vn -0.5049458 0.257019 0.823997
vn -0.3698276 0.2570189 0.8928431
vn -0.2256032 0.257019 0.9397044
vn -0.07582323 0.2570191 0.9634272
vn 0.07582326 0.257019 0.9634273
vn 0.2256031 0.257019 0.9397045
vn 0.3698274 0.2570191 0.8928431
vn 0.5049461 0.2570191 0.8239968
vn 0.6276307 0.2570191 0.7348613
vn 0.7348613 0.2570186 0.6276307
vn 0.8239968 0.2570195 0.5049458
vn 0.8928431 0.2570192 0.3698276
vn 0.9397045 0.2570187 0.2256031
vn 0.9634275 0.257018 0.07582358
vn 0.9634271 0.2570194 -0.07582366
vn 0.9397048 0.257018 -0.225603

usemtl YCG_Glass
f 3/3/2 4/4/2 2/2/1 1/1/1
f 5/7/3 6/8/3 4/6/2 3/5/2
f 7/11/4 8/12/4 6/10/3 5/9/3
f 9/15/5 10/16/5 8/14/4 7/13/4
f 11/19/6 12/20/6 10/18/5 9/17/5
f 13/23/7 14/24/7 12/22/6 11/21/6
f 15/27/8 16/28/8 14/26/7 13/25/7
f 17/31/9 18/32/9 16/30/8 15/29/8
f 19/35/10 20/36/10 18/34/9 17/33/9
f 21/39/11 22/40/11 20/38/10 19/37/10
f 23/41/12 24/42/12 22/40/11 21/39/11
f 25/45/13 26/46/13 24/44/12 23/43/12
f 27/49/14 28/50/14 26/48/13 25/47/13
f 29/53/15 30/54/15 28/52/14 27/51/14
f 31/57/16 32/58/16 30/56/15 29/55/15
f 33/57/17 34/58/17 32/56/16 31/55/16
f 35/53/18 36/54/18 34/52/17 33/51/17
f 37/49/19 38/50/19 36/48/18 35/47/18
f 39/45/20 40/46/20 38/44/19 37/43/19
f 41/41/21 42/42/21 40/40/20 39/39/20
f 43/39/22 44/40/22 42/38/21 41/37/21
f 45/35/23 46/36/23 44/34/22 43/33/22
f 47/31/24 48/32/24 46/30/23 45/29/23
f 49/27/25 50/28/25 48/26/24 47/25/24
f 51/23/26 52/24/26 50/22/25 49/21/25
f 53/19/27 54/20/27 52/18/26 51/17/26
f 55/15/28 56/16/28 54/14/27 53/13/27
f 57/11/29 58/12/29 56/10/28 55/9/28
f 59/7/30 60/8/30 58/6/29 57/5/29
f 61/3/31 62/4/31 60/2/30 59/1/30
f 63/1/32 64/2/32 62/60/31 61/59/31
f 65/63/33 66/64/33 64/62/32 63/61/32
f 67/67/34 68/68/34 66/66/33 65/65/33
f 69/71/35 70/72/35 68/70/34 67/69/34
f 71/75/36 72/76/36 70/74/35 69/73/35
f 73/75/37 74/76/37 72/74/36 71/73/36
f 75/71/38 76/72/38 74/70/37 73/69/37
f 77/67/39 78/68/39 76/66/38 75/65/38
f 79/63/40 80/64/40 78/62/39 77/61/39
f 1/1/1 2/2/1 80/60/40 79/59/40
f 81/79/41 82/80/41 49/78/41 47/77/41
f 83/83/42 81/84/42 47/82/42 45/81/42
f 82/87/43 84/88/43 51/86/43 49/85/43
f 84/91/44 85/92/44 53/90/44 51/89/44
f 85/95/45 86/96/45 55/94/45 53/93/45
f 86/99/46 87/100/46 57/98/46 55/97/46
f 87/103/47 88/104/47 59/102/47 57/101/47
f 88/107/48 89/108/48 61/106/48 59/105/48
f 89/111/49 90/112/49 63/110/49 61/109/49
f 90/115/50 91/116/50 65/114/50 63/113/50
f 91/119/51 92/120/51 67/118/51 65/117/51
f 92/123/52 93/124/52 69/122/52 67/121/52
f 93/127/53 94/128/53 71/126/53 69/125/53
f 94/131/54 95/132/54 73/130/54 71/129/54
f 95/135/55 96/136/55 75/134/55 73/133/55
f 96/139/56 97/140/56 77/138/56 75/137/56
f 97/143/57 98/144/57 79/142/57 77/141/57
f 98/147/58 99/148/58 1/146/58 79/145/58
f 99/151/59 100/152/59 3/150/59 1/149/59
f 100/155/60 101/156/60 5/154/60 3/153/60
f 101/159/61 102/160/61 7/158/61 5/157/61
f 102/163/62 103/164/62 9/162/62 7/161/62
f 103/167/63 104/168/63 11/166/63 9/165/63
f 104/171/64 105/172/64 13/170/64 11/169/64
f 105/175/65 106/176/65 15/174/65 13/173/65
f 106/179/66 107/180/66 17/178/66 15/177/66
f 107/183/67 108/184/67 19/182/67 17/181/67
f 108/187/68 109/188/68 21/186/68 19/185/68
f 109/191/69 110/192/69 23/190/69 21/189/69
f 110/195/70 111/196/70 25/194/70 23/193/70
f 111/199/71 112/200/71 27/198/71 25/197/71
f 112/203/72 113/204/72 29/202/72 27/201/72
f 113/207/73 114/208/73 31/206/73 29/205/73
f 114/211/74 115/212/74 33/210/74 31/209/74
f 115/215/75 116/216/75 35/214/75 33/213/75
f 116/219/76 117/220/76 37/218/76 35/217/76
f 117/223/77 118/224/77 39/222/77 37/221/77
f 118/227/78 119/228/78 41/226/78 39/225/78
f 119/231/79 120/232/79 43/230/79 41/229/79
f 120/235/80 83/236/80 45/234/80 43/233/80

