# ProBuilder 5.0.3
# https://unity3d.com/unity/features/worldbuilding/probuilder
# 08/02/2022 14:14:35

mtllib ./Valve.mtl
o Valve

g BotValveHandle
v 3.292 -3.145816 -11.541
v 3.287106 -3.145816 -11.5101
v 3.192 -3.487796 -11.541
v 3.192 -3.145816 -11.541
v 3.272902 -3.145816 -11.48222
v 3.250778 -3.145816 -11.4601
v 3.222902 -3.145816 -11.44589
v 3.192 -3.145816 -11.441
v 3.161098 -3.145816 -11.44589
v 3.133221 -3.145816 -11.4601
v 3.111098 -3.145816 -11.48222
v 3.096894 -3.145816 -11.5101
v 3.092 -3.145816 -11.541
v 3.096894 -3.145816 -11.5719
v 3.111098 -3.145816 -11.59978
v 3.133221 -3.145816 -11.6219
v 3.161098 -3.145816 -11.6361
v 3.192 -3.145816 -11.641
v 3.222902 -3.145816 -11.6361
v 3.250778 -3.145816 -11.6219
v 3.272902 -3.145816 -11.59978
v 3.287106 -3.145816 -11.5719

vt 0.06257373 0
vt 0 0
vt 0.0312869 0.2811069
vt -0.1999999 0.1000004
vt -0.1951056 0.1309021
vt -0.0999999 0.1000004
vt -0.1809016 0.1587788
vt -0.1587785 0.180902
vt -0.1309016 0.1951059
vt -0.0999999 0.2000003
vt -0.0690982 0.1951059
vt -0.04122137 0.180902
vt -0.01909818 0.1587788
vt -0.004894234 0.1309021
vt 1.192093E-07 0.1000004
vt -0.004894227 0.06909871
vt -0.01909818 0.04122192
vt -0.04122135 0.01909877
vt -0.06909819 0.004894823
vt -0.0999999 4.768372E-07
vt -0.1309016 0.004894823
vt -0.1587784 0.01909874
vt -0.1809016 0.04122191
vt -0.1951056 0.06909872

vn 0.8944272 -0.7646905 -2.257491E-08
vn 0.8506507 -0.7646905 0.2763936
vn -2.019162E-08 -1.7099 8.244912E-08
vn 0 1.7099 0
vn 0.7236066 -0.7646903 0.5257315
vn 0.5257308 -0.7646901 0.7236071
vn 0.2763928 -0.7646898 0.8506511
vn -4.514983E-08 -0.7646898 0.8944274
vn -0.276393 -0.7646898 0.8506511
vn -0.5257307 -0.76469 0.7236072
vn -0.7236066 -0.7646903 0.5257315
vn -0.8506508 -0.7646904 0.2763934
vn -0.8944272 -0.7646906 6.772473E-08
vn -0.8506507 -0.7646905 -0.2763935
vn -0.7236066 -0.7646903 -0.5257315
vn -0.5257309 -0.76469 -0.7236071
vn -0.2763931 -0.7646899 -0.8506511
vn -3.009988E-08 -0.7646897 -0.8944274
vn 0.276393 -0.7646899 -0.8506511
vn 0.5257308 -0.76469 -0.7236072
vn 0.7236065 -0.7646902 -0.5257316
vn 0.8506507 -0.7646905 -0.2763935

usemtl Lit
f 1/1/1 2/2/2 3/3/3
f 4/6/4 2/5/4 1/4/4
f 2/1/2 5/2/5 3/3/3
f 4/6/4 5/7/4 2/5/4
f 5/1/5 6/2/6 3/3/3
f 4/6/4 6/8/4 5/7/4
f 6/1/6 7/2/7 3/3/3
f 4/6/4 7/9/4 6/8/4
f 7/1/7 8/2/8 3/3/3
f 4/6/4 8/10/4 7/9/4
f 8/1/8 9/2/9 3/3/3
f 4/6/4 9/11/4 8/10/4
f 9/1/9 10/2/10 3/3/3
f 4/6/4 10/12/4 9/11/4
f 10/1/10 11/2/11 3/3/3
f 4/6/4 11/13/4 10/12/4
f 11/1/11 12/2/12 3/3/3
f 4/6/4 12/14/4 11/13/4
f 12/1/12 13/2/13 3/3/3
f 4/6/4 13/15/4 12/14/4
f 13/1/13 14/2/14 3/3/3
f 4/6/4 14/16/4 13/15/4
f 14/1/14 15/2/15 3/3/3
f 4/6/4 15/17/4 14/16/4
f 15/1/15 16/2/16 3/3/3
f 4/6/4 16/18/4 15/17/4
f 16/1/16 17/2/17 3/3/3
f 4/6/4 17/19/4 16/18/4
f 17/1/17 18/2/18 3/3/3
f 4/6/4 18/20/4 17/19/4
f 18/1/18 19/2/19 3/3/3
f 4/6/4 19/21/4 18/20/4
f 19/1/19 20/2/20 3/3/3
f 4/6/4 20/22/4 19/21/4
f 20/1/20 21/2/21 3/3/3
f 4/6/4 21/23/4 20/22/4
f 21/1/21 22/2/22 3/3/3
f 4/6/4 22/24/4 21/23/4
f 22/1/22 1/2/1 3/3/3
f 4/6/4 1/4/4 22/24/4

g ValveLeft
v 2.004499 -3.16 -11.543
v 1.969144 -3.160001 -11.543
v 2.004499 -3.147764 -11.46575
v 1.969144 -3.147764 -11.46575
v 2.004499 -3.112254 -11.39605
v 1.969144 -3.112254 -11.39605
v 2.004499 -3.056947 -11.34075
v 1.969144 -3.056947 -11.34075
v 2.004499 -2.987254 -11.30524
v 1.969144 -2.987254 -11.30524
v 2.004499 -2.91 -11.293
v 1.969144 -2.91 -11.293
v 2.004499 -2.832746 -11.30524
v 1.969144 -2.832746 -11.30524
v 2.004499 -2.763054 -11.34075
v 1.969144 -2.763054 -11.34075
v 2.004499 -2.707746 -11.39605
v 1.969144 -2.707746 -11.39605
v 2.004499 -2.672236 -11.46575
v 1.969144 -2.672236 -11.46575
v 2.004499 -2.66 -11.543
v 1.969144 -2.66 -11.543
v 2.004499 -2.672236 -11.62025
v 1.969144 -2.672236 -11.62025
v 2.004499 -2.707746 -11.68995
v 1.969144 -2.707746 -11.68995
v 2.004499 -2.763054 -11.74525
v 1.969144 -2.763054 -11.74525
v 2.004499 -2.832746 -11.78076
v 1.969144 -2.832746 -11.78076
v 2.004499 -2.91 -11.793
v 1.969144 -2.91 -11.793
v 2.004499 -2.987254 -11.78076
v 1.969144 -2.987254 -11.78076
v 2.004499 -3.056946 -11.74525
v 1.969144 -3.056947 -11.74525
v 2.004499 -3.112254 -11.68995
v 1.969144 -3.112254 -11.68995
v 2.004499 -3.147764 -11.62025
v 1.969144 -3.147764 -11.62025
v 2.004499 -2.91 -11.543
v 1.648901 -3.12396 -11.543
v 1.648901 -2.910001 -11.543
v 1.648901 -3.113488 -11.47688
v 1.648901 -3.083097 -11.41724
v 1.648901 -3.035763 -11.3699
v 1.648901 -2.976118 -11.33951
v 1.648901 -2.910001 -11.32904
v 1.648901 -2.843883 -11.33951
v 1.648901 -2.784237 -11.3699
v 1.648901 -2.736902 -11.41724
v 1.648901 -2.706512 -11.47688
v 1.648901 -2.69604 -11.543
v 1.648901 -2.706512 -11.60912
v 1.648901 -2.736902 -11.66876
v 1.648901 -2.784237 -11.7161
v 1.648901 -2.843883 -11.74649
v 1.648901 -2.910001 -11.75696
v 1.648901 -2.976118 -11.74649
v 1.648901 -3.035763 -11.7161
v 1.648901 -3.083097 -11.66876
v 1.648901 -3.113488 -11.60912

vt 0.1687048 4.4372E-06
vt 0.1687047 0.03535935
vt 0.246922 4.4372E-06
vt 0.246922 0.03535935
vt 0.07014541 1.322354E-06
vt 0.07014543 0.03535624
vt 0.1483627 1.322354E-06
vt 0.1483623 0.03535623
vt -0.03910861 -2.863325E-06
vt -0.03910895 0.03535205
vt 0.03910861 -2.863325E-06
vt 0.03910854 0.03535204
vt -0.1483626 1.991876E-06
vt -0.1483627 0.0353569
vt -0.07014539 1.991876E-06
vt -0.07014536 0.03535689
vt -0.246922 3.760597E-06
vt -0.2469221 0.03535866
vt -0.1687048 3.760597E-06
vt -0.1687048 0.03535876
vt -0.3251394 -8.994607E-08
vt -0.3251394 0.03535492
vt -0.3753579 1.254123E-06
vt -0.3753582 0.03535625
vt -0.2971407 1.254123E-06
vt -0.2971408 0.03535624
vt -0.3926619 -2.575622E-07
vt -0.392662 0.03535473
vt -0.3144447 -2.575622E-07
vt -0.3144444 0.03535473
vt 0.3251394 5.157084E-09
vt 0.3251394 0.0353549
vt 0.2971407 8.798734E-07
vt 0.2971406 0.03535578
vt 0.3753578 8.798734E-07
vt 0.375358 0.03535578
vt 0.3144448 1.103841E-06
vt 0.3144449 0.03535601
vt 0.3926621 1.103841E-06
vt 0.3926624 0.03535601
vt -0.5 0.25
vt -0.25 0.25
vt -0.4877641 0.3272542
vt 0.4639601 0.25
vt 0.2500001 0.25
vt 0.4534881 0.3161173
vt -0.4522542 0.3969463
vt 0.4230971 0.3757619
vt -0.3969463 0.4522542
vt 0.3757628 0.4230964
vt -0.3272542 0.4877641
vt 0.3161173 0.4534882
vt -0.25 0.5
vt 0.2499997 0.25
vt 0.2499997 0.4639597
vt -0.1727458 0.4877641
vt 0.2500003 0.4639597
vt 0.2500003 0.25
vt 0.1838828 0.4534883
vt -0.1030537 0.4522542
vt 0.1242375 0.4230967
vt -0.04774573 0.3969463
vt 0.07690247 0.375762
vt -0.01223588 0.3272543
vt 0.04651174 0.3161173
vt 0 0.25
vt 0.03603968 0.25
vt -0.01223586 0.1727458
vt 0.03603968 0.25
vt 0.04651174 0.1838827
vt -0.04774573 0.1030537
vt 0.07690248 0.124238
vt -0.1030536 0.04774579
vt 0.1242374 0.07690338
vt -0.1727457 0.01223588
vt 0.1838827 0.0465116
vt -0.25 0
vt 0.2500003 0.03604031
vt -0.3272543 0.01223588
vt 0.2499997 0.03604031
vt 0.3161167 0.04651165
vt -0.3969463 0.04774572
vt 0.3757627 0.07690352
vt -0.4522542 0.1030537
vt 0.4230972 0.1242383
vt -0.4877641 0.1727458
vt 0.4534881 0.1838828
vt 0.4639601 0.25
vt 0.3251407 -0.01509782
vt 0.2469234 -0.01509782
vt 0.3195027 0.3071168
vt 0.2525613 0.3071168
vt 0.2469205 -0.0237388
vt 0.1687032 -0.0237388
vt 0.2412827 0.2984759
vt 0.1743412 0.2984759
vt 0.3753585 -0.004209477
vt 0.2971416 -0.004209481
vt 0.3697206 0.3180052
vt 0.3027796 0.3180052
vt 0.3926613 0.007859714
vt 0.3144438 0.007859707
vt 0.3870236 0.3300744
vt 0.3200824 0.3300744
vt 0.3753578 0.01992946
vt 0.2971404 0.01992945
vt 0.3697203 0.3421442
vt 0.3027783 0.3421441
vt 0.3251395 0.0308181
vt 0.2469222 0.03081821
vt 0.3195015 0.3530327
vt 0.2525603 0.3530329
vt 0.2469222 0.03945903
vt 0.168705 0.03945903
vt 0.2412847 0.3616737
vt 0.1743428 0.3616737
vt 0.1483624 0.04500689
vt 0.07014526 0.04500688
vt 0.1427243 0.3672215
vt 0.07578252 0.3672216
vt 0.03910851 0.04691865
vt -0.03910913 0.04691865
vt 0.0334699 0.3691333
vt -0.03347161 0.3691333
vt -0.07014557 0.04500689
vt -0.1483624 0.04500688
vt -0.07578368 0.3672215
vt -0.1427246 0.3672215
vt -0.1687048 0.03945902
vt -0.2469221 0.03945902
vt -0.1743428 0.3616737
vt -0.2412843 0.3616736
vt -0.2469221 0.03081814
vt -0.3251394 0.03081814
vt -0.2525599 0.3530328
vt -0.3195014 0.3530328
vt -0.2971404 0.01992989
vt -0.3753573 0.01992989
vt -0.3027782 0.3421445
vt -0.3697192 0.3421445
vt -0.314445 0.007860268
vt -0.3926626 0.007860271
vt -0.3200825 0.3300749
vt -0.387024 0.3300749
vt -0.2971414 -0.004210045
vt -0.3753588 -0.004210034
vt -0.3027787 0.3180047
vt -0.3697207 0.3180046
vt -0.2469212 -0.01509773
vt -0.3251382 -0.01509772
vt -0.252559 0.3071169
vt -0.3195006 0.307117
vt -0.1687064 -0.02373914
vt -0.2469236 -0.02373925
vt -0.1743445 0.2984755
vt -0.2412856 0.2984754
vt -0.07014436 -0.02928657
vt -0.1483617 -0.02928657
vt -0.07578231 0.2929281
vt -0.1427243 0.2929281
vt 0.03911097 -0.03119901
vt -0.03910651 -0.031199
vt 0.03347238 0.2910157
vt -0.03346878 0.2910157
vt 0.1483612 -0.02928711
vt 0.07014439 -0.02928711
vt 0.1427233 0.2929276
vt 0.07578228 0.2929275

vn 6.929542E-06 -1 -7.241716E-07
vn 3.856866E-06 -0.9510564 0.3090177
vn -2.145497E-06 -0.8090168 0.5877856
vn 1.648286E-06 -0.5877861 0.8090164
vn 6.284899E-06 -0.3090175 0.9510564
vn 1.73596E-06 7.996063E-07 1
vn 3.164522E-06 0.3090165 0.9510567
vn 3.100975E-07 0.5877855 0.8090169
vn -3.964578E-06 0.8090175 0.5877848
vn -8.587483E-07 0.9510565 0.3090174
vn 9.76796E-09 1 3.771726E-08
vn 1.138786E-07 0.9510566 -0.309017
vn -3.872764E-06 0.8090169 -0.5877855
vn -1.966971E-06 0.5877858 -0.8090166
vn 4.950966E-06 0.3090178 -0.9510562
vn 1.735957E-06 -7.468017E-07 -1
vn 5.024955E-06 -0.3090164 -0.9510567
vn 4.723978E-06 -0.5877856 -0.8090168
vn -9.551771E-07 -0.8090177 -0.5877845
vn 1.2134E-06 -0.9510565 -0.3090174
vn 1 1.192093E-07 0
vn -1 -5.370771E-07 6.618444E-08
vn -0.1104738 -0.9816424 -0.1554799
vn -0.1104735 -0.9816424 0.1554799
vn -0.1104735 -0.885552 -0.4512132
vn -0.1104746 -0.7027815 -0.7027757
vn -0.1104755 -0.4512131 -0.8855518
vn -0.1104736 -0.1554742 -0.9816432
vn -0.110475 0.155474 -0.9816431
vn -0.1104734 0.4512144 -0.8855514
vn -0.1104748 0.7027801 -0.702777
vn -0.1104736 0.885552 -0.4512132
vn -0.1104732 0.981643 -0.155477
vn -0.1104728 0.981643 0.155477
vn -0.1104733 0.8855521 0.4512133
vn -0.1104738 0.7027802 0.7027771
vn -0.1104754 0.4512131 0.8855518
vn -0.1104735 0.1554745 0.9816431
vn -0.1104747 -0.1554742 0.9816431
vn -0.1104735 -0.4512132 0.885552
vn -0.1104749 -0.7027815 0.7027757
vn -0.1104745 -0.8855519 0.4512132

usemtl Lit
f 23/65/43 63/66/43 25/67/43
f 25/67/43 63/66/43 27/71/43
f 27/71/43 63/66/43 29/73/43
f 29/73/43 63/66/43 31/75/43
f 31/75/43 63/66/43 33/77/43
f 33/77/43 63/66/43 35/80/43
f 35/80/43 63/66/43 37/84/43
f 37/84/43 63/66/43 39/86/43
f 39/86/43 63/66/43 41/88/43
f 41/88/43 63/66/43 43/90/43
f 43/90/43 63/66/43 45/92/43
f 45/92/43 63/66/43 47/95/43
f 47/95/43 63/66/43 49/97/43
f 49/97/43 63/66/43 51/99/43
f 51/99/43 63/66/43 53/101/43
f 53/101/43 63/66/43 55/103/43
f 55/103/43 63/66/43 57/106/43
f 57/106/43 63/66/43 59/108/43
f 59/108/43 63/66/43 61/110/43
f 61/110/43 63/66/43 23/65/43
f 66/70/44 65/69/44 64/68/44
f 67/72/44 65/69/44 66/70/44
f 68/74/44 65/69/44 67/72/44
f 69/76/44 65/69/44 68/74/44
f 70/79/44 65/78/44 69/76/44
f 71/83/44 65/82/44 70/81/44
f 72/85/44 65/82/44 71/83/44
f 73/87/44 65/69/44 72/85/44
f 74/89/44 65/69/44 73/87/44
f 75/91/44 65/69/44 74/89/44
f 76/94/44 65/82/44 75/93/44
f 77/96/44 65/82/44 76/94/44
f 78/98/44 65/82/44 77/96/44
f 79/100/44 65/69/44 78/98/44
f 80/102/44 65/82/44 79/100/44
f 81/105/44 65/78/44 80/104/44
f 82/107/44 65/82/44 81/105/44
f 83/109/44 65/82/44 82/107/44
f 84/111/44 65/82/44 83/109/44
f 64/112/44 65/82/44 84/111/44
f 26/28/24 24/26/23 23/25/23
f 23/25/23 25/27/24 26/28/24
f 28/32/25 26/30/24 25/29/24
f 25/29/24 27/31/25 28/32/25
f 30/36/26 28/34/25 27/33/25
f 27/33/25 29/35/26 30/36/26
f 32/40/27 30/38/26 29/37/26
f 29/37/26 31/39/27 32/40/27
f 34/44/28 32/42/27 31/41/27
f 31/41/27 33/43/28 34/44/28
f 36/42/29 34/46/28 33/45/28
f 33/45/28 35/41/29 36/42/29
f 38/50/30 36/48/29 35/47/29
f 35/47/29 37/49/30 38/50/30
f 40/54/31 38/52/30 37/51/30
f 37/51/30 39/53/31 40/54/31
f 42/50/32 40/48/31 39/47/31
f 39/47/31 41/49/32 42/50/32
f 44/42/33 42/46/32 41/45/32
f 41/45/32 43/41/33 44/42/33
f 46/44/34 44/42/33 43/41/33
f 43/41/33 45/43/34 46/44/34
f 48/40/35 46/38/34 45/37/34
f 45/37/34 47/39/35 48/40/35
f 50/36/36 48/34/35 47/33/35
f 47/33/35 49/35/36 50/36/36
f 52/32/37 50/30/36 49/29/36
f 49/29/36 51/31/37 52/32/37
f 54/28/38 52/26/37 51/25/37
f 51/25/37 53/27/38 54/28/38
f 56/56/39 54/28/38 53/27/38
f 53/27/38 55/55/39 56/56/39
f 58/60/40 56/58/39 55/57/39
f 55/57/39 57/59/40 58/60/40
f 60/64/41 58/62/40 57/61/40
f 57/61/40 59/63/41 60/64/41
f 62/60/42 60/58/41 59/57/41
f 59/57/41 61/59/42 62/60/42
f 24/56/23 62/28/42 61/27/42
f 61/27/42 23/55/23 24/56/23
f 84/116/45 62/114/45 24/113/45
f 24/113/45 64/115/45 84/116/45
f 64/120/46 24/118/46 26/117/46
f 26/117/46 66/119/46 64/120/46
f 83/124/47 60/122/47 62/121/47
f 62/121/47 84/123/47 83/124/47
f 82/128/48 58/126/48 60/125/48
f 60/125/48 83/127/48 82/128/48
f 81/132/49 56/130/49 58/129/49
f 58/129/49 82/131/49 81/132/49
f 80/136/50 54/134/50 56/133/50
f 56/133/50 81/135/50 80/136/50
f 79/140/51 52/138/51 54/137/51
f 54/137/51 80/139/51 79/140/51
f 78/144/52 50/142/52 52/141/52
f 52/141/52 79/143/52 78/144/52
f 77/148/53 48/146/53 50/145/53
f 50/145/53 78/147/53 77/148/53
f 76/152/54 46/150/54 48/149/54
f 48/149/54 77/151/54 76/152/54
f 75/156/55 44/154/55 46/153/55
f 46/153/55 76/155/55 75/156/55
f 74/160/56 42/158/56 44/157/56
f 44/157/56 75/159/56 74/160/56
f 73/164/57 40/162/57 42/161/57
f 42/161/57 74/163/57 73/164/57
f 72/168/58 38/166/58 40/165/58
f 40/165/58 73/167/58 72/168/58
f 71/172/59 36/170/59 38/169/59
f 38/169/59 72/171/59 71/172/59
f 70/176/60 34/174/60 36/173/60
f 36/173/60 71/175/60 70/176/60
f 69/180/61 32/178/61 34/177/61
f 34/177/61 70/179/61 69/180/61
f 68/184/62 30/182/62 32/181/62
f 32/181/62 69/183/62 68/184/62
f 67/188/63 28/186/63 30/185/63
f 30/185/63 68/187/63 67/188/63
f 66/192/64 26/190/64 28/189/64
f 28/189/64 67/191/64 66/192/64

g ValveBody
v 3.406419 -3.160001 -11.545
v 2.005214 -3.160001 -11.545
v 3.406419 -3.147765 -11.46775
v 2.005214 -3.147764 -11.46775
v 3.406419 -3.112255 -11.39805
v 2.005214 -3.112255 -11.39805
v 3.406419 -3.056947 -11.34275
v 2.005214 -3.056947 -11.34275
v 3.406418 -2.987255 -11.30724
v 2.005214 -2.987255 -11.30724
v 3.406419 -2.910001 -11.295
v 2.005214 -2.91 -11.295
v 3.406419 -2.832747 -11.30724
v 2.005214 -2.832746 -11.30724
v 3.406419 -2.763055 -11.34275
v 2.005214 -2.763054 -11.34275
v 3.406419 -2.707747 -11.39805
v 2.005214 -2.707746 -11.39805
v 3.406419 -2.672237 -11.46775
v 2.005214 -2.672236 -11.46775
v 3.406419 -2.660001 -11.545
v 2.005214 -2.66 -11.545
v 3.406419 -2.672237 -11.62225
v 2.005214 -2.672236 -11.62225
v 3.406419 -2.707747 -11.69195
v 2.005214 -2.707746 -11.69195
v 3.406419 -2.763054 -11.74725
v 2.005214 -2.763054 -11.74725
v 3.406419 -2.832747 -11.78276
v 2.005214 -2.832746 -11.78276
v 3.406419 -2.910001 -11.795
v 2.005214 -2.91 -11.795
v 3.406418 -2.987255 -11.78276
v 2.005214 -2.987255 -11.78276
v 3.406419 -3.056947 -11.74725
v 2.005214 -3.056947 -11.74725
v 3.406419 -3.112255 -11.69195
v 2.005214 -3.112255 -11.69195
v 3.406419 -3.147765 -11.62225
v 2.005214 -3.147764 -11.62225
v 3.406419 -2.910001 -11.545
v 2.005214 -2.91 -11.545

vt 0.1687047 -0.8204188
vt 0.1687048 0.5807852
vt 0.246922 -0.8204188
vt 0.2469221 0.5807852
vt 0.07014406 -0.8204189
vt 0.07014435 0.5807852
vt 0.1483609 -0.8204189
vt 0.1483612 0.5807852
vt -0.03910687 -0.8204188
vt -0.03910641 0.5807852
vt 0.0391106 -0.8204188
vt 0.03911106 0.5807852
vt -0.1483624 -0.8204188
vt -0.1483618 0.5807853
vt -0.07014503 -0.8204183
vt -0.07014444 0.5807853
vt -0.2469245 -0.8204182
vt -0.2469238 0.5807853
vt -0.1687072 -0.8204187
vt -0.1687066 0.5807853
vt -0.3251387 -0.8204186
vt -0.3251381 0.5807855
vt -0.3753597 -0.8204186
vt -0.3753593 0.5807855
vt -0.2971425 -0.8204186
vt -0.2971419 0.5807855
vt -0.3926632 -0.8204186
vt -0.3926627 0.5807855
vt -0.3144455 -0.8204186
vt -0.314445 0.5807854
vt 0.3251402 -0.8204182
vt 0.3251396 0.5807854
vt 0.2971409 -0.8204182
vt 0.2971403 0.5807854
vt 0.375358 -0.8204187
vt 0.3753577 0.5807854
vt 0.3144447 -0.8204187
vt 0.3144444 0.5807853
vt 0.3926623 -0.8204187
vt 0.3926618 0.5807853
vt -0.5000006 0.2500006
vt -0.2500005 0.2500006
vt -0.4877647 0.3272549
vt 0.5000004 0.25
vt 0.2500001 0.25
vt 0.4877643 0.3272543
vt -0.4522551 0.396946
vt 0.4522544 0.396946
vt -0.3969472 0.4522543
vt 0.3969465 0.4522543
vt -0.2500048 0.249997
vt -0.3272592 0.4877614
vt 0.3272544 0.4877644
vt -0.2499957 0.25
vt -0.2499957 0.5
vt 0.2500001 0.5
vt -0.2500007 0.5
vt -0.1727464 0.4877644
vt 0.172746 0.4877644
vt -0.1030545 0.4522543
vt 0.1030539 0.4522543
vt -0.04774643 0.396946
vt 0.04774615 0.3969462
vt -0.0122366 0.3272543
vt 0.2500002 0.2499999
vt 0.01223609 0.3272542
vt -7.231735E-07 0.25
vt 2.177698E-07 0.25
vt -0.0122366 0.1727457
vt 0.0122361 0.1727457
vt -0.04774643 0.103054
vt 0.04774592 0.1030541
vt -0.1030543 0.0477457
vt 0.1030543 0.04774544
vt -0.1727464 0.01223564
vt 0.1727458 0.01223564
vt -0.2500007 0
vt 0.2500001 0
vt -0.2499957 0
vt -0.32725 0.01223564
vt 0.3272544 0.01223564
vt -0.396951 0.04774868
vt 0.3969465 0.0477457
vt -0.4522551 0.103054
vt 0.4522544 0.103054
vt -0.4877649 0.1727457
vt 0.4877643 0.1727457
vt -0.5000006 0.2499994

vn -2.157788E-07 -1 -6.562805E-07
vn -2.741943E-07 -0.9510561 0.3090185
vn -2.773162E-07 -0.8090178 0.5877843
vn -2.049677E-07 -0.5877877 0.8090152
vn -1.077573E-07 -0.3090164 0.9510567
vn -8.421587E-10 7.54345E-09 1
vn 5.820736E-08 0.3090171 0.9510565
vn 1.816783E-07 0.5877871 0.8090157
vn 2.76136E-07 0.8090172 0.5877851
vn 3.237255E-07 0.9510564 0.3090179
vn 3.403538E-07 1 0
vn 3.234845E-07 0.9510563 -0.3090179
vn 2.755105E-07 0.8090178 -0.5877843
vn 1.318069E-07 0.5877873 -0.8090156
vn 8.552943E-08 0.3090167 -0.9510566
vn 4.210879E-10 1.50869E-08 -1
vn -1.069154E-07 -0.309017 -0.9510565
vn -1.245068E-07 -0.5877872 -0.8090157
vn -2.516588E-07 -0.8090175 -0.5877846
vn -3.16212E-07 -0.9510563 -0.3090179
vn 1 -1.192093E-07 -7.337765E-07
vn -1 -1.192093E-07 0

usemtl Lit
f 85/233/85 125/234/85 87/235/85
f 87/235/85 125/234/85 89/239/85
f 89/239/85 125/234/85 91/241/85
f 91/241/85 125/243/85 93/244/85
f 93/244/85 125/246/85 95/247/85
f 95/249/85 125/234/85 97/250/85
f 97/250/85 125/234/85 99/252/85
f 99/252/85 125/234/85 101/254/85
f 101/254/85 125/234/85 103/256/85
f 103/256/85 125/234/85 105/259/85
f 105/259/85 125/234/85 107/261/85
f 107/261/85 125/234/85 109/263/85
f 109/263/85 125/234/85 111/265/85
f 111/265/85 125/234/85 113/267/85
f 113/267/85 125/234/85 115/269/85
f 115/271/85 125/246/85 117/272/85
f 117/272/85 125/234/85 119/274/85
f 119/274/85 125/234/85 121/276/85
f 121/276/85 125/234/85 123/278/85
f 123/278/85 125/243/85 85/280/85
f 88/238/86 126/237/86 86/236/86
f 90/240/86 126/237/86 88/238/86
f 92/242/86 126/237/86 90/240/86
f 94/245/86 126/237/86 92/242/86
f 96/248/86 126/237/86 94/245/86
f 98/251/86 126/237/86 96/248/86
f 100/253/86 126/237/86 98/251/86
f 102/255/86 126/237/86 100/253/86
f 104/258/86 126/257/86 102/255/86
f 106/260/86 126/257/86 104/258/86
f 108/262/86 126/237/86 106/259/86
f 110/264/86 126/237/86 108/262/86
f 112/266/86 126/257/86 110/264/86
f 114/268/86 126/237/86 112/266/86
f 116/270/86 126/237/86 114/268/86
f 118/273/86 126/237/86 116/270/86
f 120/275/86 126/237/86 118/273/86
f 122/277/86 126/237/86 120/275/86
f 124/279/86 126/237/86 122/277/86
f 86/236/86 126/237/86 124/279/86
f 88/196/66 86/194/65 85/193/65
f 85/193/65 87/195/66 88/196/66
f 90/200/67 88/198/66 87/197/66
f 87/197/66 89/199/67 90/200/67
f 92/204/68 90/202/67 89/201/67
f 89/201/67 91/203/68 92/204/68
f 94/208/69 92/206/68 91/205/68
f 91/205/68 93/207/69 94/208/69
f 96/212/70 94/210/69 93/209/69
f 93/209/69 95/211/70 96/212/70
f 98/210/71 96/214/70 95/213/70
f 95/213/70 97/209/71 98/210/71
f 100/218/72 98/216/71 97/215/71
f 97/215/71 99/217/72 100/218/72
f 102/222/73 100/220/72 99/219/72
f 99/219/72 101/221/73 102/222/73
f 104/218/74 102/216/73 101/215/73
f 101/215/73 103/217/74 104/218/74
f 106/210/75 104/214/74 103/213/74
f 103/213/74 105/209/75 106/210/75
f 108/212/76 106/210/75 105/209/75
f 105/209/75 107/211/76 108/212/76
f 110/208/77 108/206/76 107/205/76
f 107/205/76 109/207/77 110/208/77
f 112/204/78 110/202/77 109/201/77
f 109/201/77 111/203/78 112/204/78
f 114/200/79 112/198/78 111/197/78
f 111/197/78 113/199/79 114/200/79
f 116/196/80 114/194/79 113/193/79
f 113/193/79 115/195/80 116/196/80
f 118/224/81 116/196/80 115/195/80
f 115/195/80 117/223/81 118/224/81
f 120/228/82 118/226/81 117/225/81
f 117/225/81 119/227/82 120/228/82
f 122/232/83 120/230/82 119/229/82
f 119/229/82 121/231/83 122/232/83
f 124/228/84 122/226/83 121/225/83
f 121/225/83 123/227/84 124/228/84
f 86/224/65 124/196/84 123/195/84
f 123/195/84 85/223/65 86/224/65

g TopValveHandle
v 3.292 -2.673815 -11.541
v 3.287106 -2.673815 -11.5101
v 3.192 -2.331836 -11.541
v 3.192 -2.673815 -11.541
v 3.272902 -2.673815 -11.48222
v 3.250778 -2.673815 -11.4601
v 3.222902 -2.673815 -11.44589
v 3.192 -2.673815 -11.441
v 3.161098 -2.673815 -11.44589
v 3.133221 -2.673815 -11.4601
v 3.111098 -2.673815 -11.48222
v 3.096894 -2.673815 -11.5101
v 3.092 -2.673815 -11.541
v 3.096894 -2.673815 -11.5719
v 3.111098 -2.673815 -11.59978
v 3.133221 -2.673815 -11.6219
v 3.161098 -2.673815 -11.6361
v 3.192 -2.673815 -11.641
v 3.222902 -2.673815 -11.6361
v 3.250778 -2.673815 -11.6219
v 3.272902 -2.673815 -11.59978
v 3.287106 -2.673815 -11.5719

vt 0.06257373 0
vt 0 0
vt 0.0312869 0.2811069
vt 0.1999999 0.1000004
vt 0.1951056 0.1309021
vt 0.0999999 0.1000004
vt 0.1809016 0.1587788
vt 0.1587785 0.180902
vt 0.1309016 0.1951059
vt 0.0999999 0.2000003
vt 0.0690982 0.1951059
vt 0.04122137 0.180902
vt 0.01909818 0.1587788
vt 0.004894234 0.1309021
vt -1.192093E-07 0.1000004
vt 0.004894227 0.06909871
vt 0.01909818 0.04122192
vt 0.04122135 0.01909877
vt 0.06909819 0.004894823
vt 0.0999999 4.768372E-07
vt 0.1309016 0.004894823
vt 0.1587784 0.01909874
vt 0.1809016 0.04122191
vt 0.1951056 0.06909872

vn 0.8944272 0.7646905 -2.257491E-08
vn 0.8506507 0.7646905 0.2763936
vn -2.019162E-08 1.7099 8.244912E-08
vn 0 -1.7099 0
vn 0.7236066 0.7646903 0.5257315
vn 0.5257308 0.7646901 0.7236071
vn 0.2763928 0.7646898 0.8506511
vn -4.514983E-08 0.7646898 0.8944274
vn -0.276393 0.7646898 0.8506511
vn -0.5257307 0.76469 0.7236072
vn -0.7236066 0.7646903 0.5257315
vn -0.8506508 0.7646904 0.2763934
vn -0.8944272 0.7646906 6.772473E-08
vn -0.8506507 0.7646905 -0.2763935
vn -0.7236066 0.7646903 -0.5257315
vn -0.5257309 0.76469 -0.7236071
vn -0.2763931 0.7646899 -0.8506511
vn -3.009988E-08 0.7646897 -0.8944274
vn 0.276393 0.7646899 -0.8506511
vn 0.5257308 0.76469 -0.7236072
vn 0.7236065 0.7646902 -0.5257316
vn 0.8506507 0.7646905 -0.2763935

usemtl Lit
f 129/283/89 128/282/88 127/281/87
f 127/284/90 128/285/90 130/286/90
f 129/283/89 131/282/91 128/281/88
f 128/285/90 131/287/90 130/286/90
f 129/283/89 132/282/92 131/281/91
f 131/287/90 132/288/90 130/286/90
f 129/283/89 133/282/93 132/281/92
f 132/288/90 133/289/90 130/286/90
f 129/283/89 134/282/94 133/281/93
f 133/289/90 134/290/90 130/286/90
f 129/283/89 135/282/95 134/281/94
f 134/290/90 135/291/90 130/286/90
f 129/283/89 136/282/96 135/281/95
f 135/291/90 136/292/90 130/286/90
f 129/283/89 137/282/97 136/281/96
f 136/292/90 137/293/90 130/286/90
f 129/283/89 138/282/98 137/281/97
f 137/293/90 138/294/90 130/286/90
f 129/283/89 139/282/99 138/281/98
f 138/294/90 139/295/90 130/286/90
f 129/283/89 140/282/100 139/281/99
f 139/295/90 140/296/90 130/286/90
f 129/283/89 141/282/101 140/281/100
f 140/296/90 141/297/90 130/286/90
f 129/283/89 142/282/102 141/281/101
f 141/297/90 142/298/90 130/286/90
f 129/283/89 143/282/103 142/281/102
f 142/298/90 143/299/90 130/286/90
f 129/283/89 144/282/104 143/281/103
f 143/299/90 144/300/90 130/286/90
f 129/283/89 145/282/105 144/281/104
f 144/300/90 145/301/90 130/286/90
f 129/283/89 146/282/106 145/281/105
f 145/301/90 146/302/90 130/286/90
f 129/283/89 147/282/107 146/281/106
f 146/302/90 147/303/90 130/286/90
f 129/283/89 148/282/108 147/281/107
f 147/303/90 148/304/90 130/286/90
f 129/283/89 127/282/87 148/281/108
f 148/304/90 127/284/90 130/286/90

